<svg xmlns="http://www.w3.org/2000/svg" viewBox="0 0 61.29 61.29"><defs><style>.cls-1{fill:#39b54a;}</style></defs><title>img-gotop</title><g id="NAV"><path class="cls-1" d="M29.15,46.62V54a1.49,1.49,0,1,0,3,0V46.62a13.14,13.14,0,0,0,7.86-4,13.31,13.31,0,0,0,3.85-9.09c0-13.44-11.7-24.08-12.2-24.52a1.49,1.49,0,0,0-2,0c-.5.45-12.2,11.08-12.2,24.52a13.31,13.31,0,0,0,3.85,9.09A13.14,13.14,0,0,0,29.15,46.62Zm3-32.81a43.27,43.27,0,0,1,4.66,6.41l-.07.06-4.59,4.59Zm0,15.29L38.27,23A28.82,28.82,0,0,1,40,27.5l-7.85,7.85Zm0,10.46L40.7,31a20.47,20.47,0,0,1,.16,2.51,10.74,10.74,0,0,1-8.72,10.09Zm-3-25.75V24.89l-4.59-4.59-.07-.07A43.27,43.27,0,0,1,29.15,13.82ZM23,23l6.13,6.13v6.24L21.31,27.5A28.8,28.8,0,0,1,23,23Zm-2.43,8,8.56,8.56v4a10.74,10.74,0,0,1-8.72-10.09A20.53,20.53,0,0,1,20.59,31Z"/><path class="cls-1" d="M0,0V61.29H61.29V0ZM59.8,59.8H1.49V1.49H59.8Z"/></g></svg>