<svg xmlns="http://www.w3.org/2000/svg" xmlns:xlink="http://www.w3.org/1999/xlink" viewBox="0 0 105.75 50.85"><defs><style>.cls-1{fill:#fff;}.cls-2{clip-path:url(#clip-path);}.cls-3{clip-path:url(#clip-path-2);}.cls-4{clip-path:url(#clip-path-3);}.cls-5{clip-path:url(#clip-path-4);}.cls-6{clip-path:url(#clip-path-5);}.cls-7{clip-path:url(#clip-path-6);}.cls-8{clip-path:url(#clip-path-7);}.cls-9{clip-path:url(#clip-path-8);}.cls-10{clip-path:url(#clip-path-9);}.cls-11{clip-path:url(#clip-path-10);}.cls-12{clip-path:url(#clip-path-11);}.cls-13{clip-path:url(#clip-path-12);}.cls-14{clip-path:url(#clip-path-13);}.cls-15{clip-path:url(#clip-path-15);}.cls-16{clip-path:url(#clip-path-17);}.cls-17{clip-path:url(#clip-path-19);}</style><clipPath id="clip-path"><path class="cls-1" d="M11,13.8a4.62,4.62,0,0,1-.83.09h-1l-.88,0H3.65l-1,0a6.54,6.54,0,0,1-.86-.07l-.64-.13L.66,16.9l.14.05A4,4,0,0,1,1,16.32c.11-.21.22-.41.33-.6l.34-.51A2.48,2.48,0,0,1,2,14.85a1.87,1.87,0,0,1,.69-.47,3.15,3.15,0,0,1,1-.15H5.57v6.55q0,.51,0,1c0,.32,0,.6,0,.86s0,.47,0,.62,0,.37,0,.56,0,.37,0,.53a4.36,4.36,0,0,1-.06.44.57.57,0,0,1-.11.28,1.58,1.58,0,0,1-.72.56,4.08,4.08,0,0,1-.76.17v.17H8.79v-.17a7.22,7.22,0,0,1-.75-.2,1.14,1.14,0,0,1-.65-.5,1.39,1.39,0,0,1-.15-.63c0-.3,0-.61,0-.94v-6.6q0-.8,0-1.52t0-1.15H9.17a3.77,3.77,0,0,1,.95.13,1.52,1.52,0,0,1,.69.45,2.28,2.28,0,0,1,.29.36l.34.53c.12.19.23.4.34.62s.21.43.29.63l.14-.05-.48-3.29c-.23.08-.46.14-.68.19"/></clipPath><clipPath id="clip-path-2"><path class="cls-1" d="M7.42,14h2.8a4.37,4.37,0,0,0,.84-.1c.2,0,.42-.11.63-.18l.47,3.21-.06,0c-.08-.19-.17-.39-.27-.6s-.23-.43-.34-.62l-.34-.54a2.56,2.56,0,0,0-.29-.37,1.6,1.6,0,0,0-.71-.46,3.72,3.72,0,0,0-1-.13H7.24a0,0,0,0,0,0,0c0,.28,0,.66,0,1.15s0,1,0,1.52v6.61c0,.33,0,.64,0,.94a1.36,1.36,0,0,0,.15.65,1.2,1.2,0,0,0,.67.53,6.59,6.59,0,0,0,.72.19v.09H3.9v-.09a4.37,4.37,0,0,0,.73-.17,1.62,1.62,0,0,0,.74-.57.62.62,0,0,0,.12-.3c0-.13,0-.28.06-.44s0-.34,0-.54,0-.38,0-.56,0-.36,0-.62,0-.54,0-.86,0-.65,0-1V14.21a0,0,0,0,0,0,0H3.64a3.11,3.11,0,0,0-1,.15,1.87,1.87,0,0,0-.71.48,2.42,2.42,0,0,0-.29.36l-.34.52c-.11.18-.23.39-.34.6a4,4,0,0,0-.24.59l-.06,0,.44-3.12.6.12a7,7,0,0,0,.87.07l1,0H7.42Zm4.29-.41c-.23.08-.45.14-.67.19a4.37,4.37,0,0,1-.82.09H3.66l-1,0a6.14,6.14,0,0,1-.85-.07l-.64-.13h0a.05.05,0,0,0,0,0L.61,16.89a0,0,0,0,0,0,0l.14,0h0l0,0a3.77,3.77,0,0,1,.25-.62,6.3,6.3,0,0,1,.33-.6l.33-.51A2.38,2.38,0,0,1,2,14.88a1.74,1.74,0,0,1,.68-.46,3,3,0,0,1,.93-.15H5.53v6.51c0,.33,0,.66,0,1s0,.61,0,.86,0,.47,0,.63,0,.37,0,.56,0,.37,0,.53,0,.31-.06.43a.56.56,0,0,1-.1.26,1.54,1.54,0,0,1-.69.54,3.71,3.71,0,0,1-.75.16,0,0,0,0,0,0,0v.17a0,0,0,0,0,0,0H8.79a0,0,0,0,0,0,0v-.17a0,0,0,0,0,0,0,7.36,7.36,0,0,1-.75-.2A1.1,1.1,0,0,1,7.43,25a1.26,1.26,0,0,1-.14-.61c0-.29,0-.61,0-.93v-6.6c0-.56,0-1.06,0-1.52s0-.83,0-1.1H9.17a3.91,3.91,0,0,1,.94.13,1.52,1.52,0,0,1,.67.44,2.37,2.37,0,0,1,.28.35c.11.16.23.34.34.53s.23.4.34.61.21.43.29.63a0,0,0,0,0,.06,0l.14,0a0,0,0,0,0,0,0l-.49-3.29a0,0,0,0,0,0,0h0"/></clipPath><clipPath id="clip-path-3"><path class="cls-1" d="M20.94,13.77v.17a2.72,2.72,0,0,1,.7.13,1.18,1.18,0,0,1,.62.57,1.32,1.32,0,0,1,.14.57c0,.23,0,.45,0,.67,0,.37,0,.7,0,1v2.72h-6V17.88c0-.42,0-.85,0-1.31s0-.88,0-1.27a1.48,1.48,0,0,1,.15-.64,1.14,1.14,0,0,1,.34-.4,1.3,1.3,0,0,1,.44-.21,4,4,0,0,1,.46-.1v-.17H13.34v.17a2.74,2.74,0,0,1,.71.18,1.18,1.18,0,0,1,.53.41.77.77,0,0,1,.14.33,3.14,3.14,0,0,1,.07.47q0,.26,0,.57v4.88c0,.34,0,.67,0,1s0,.61,0,.88,0,.49,0,.64,0,.37,0,.57,0,.38,0,.55a4.23,4.23,0,0,1-.06.45.74.74,0,0,1-.1.28,1.38,1.38,0,0,1-.53.4,3.05,3.05,0,0,1-.73.23v.17h4.48v-.17a2.12,2.12,0,0,1-.65-.19,1.15,1.15,0,0,1-.52-.44,1.32,1.32,0,0,1-.14-.64c0-.3,0-.62,0-.94V19.92h6v2.67c0,.39,0,.78,0,1.15,0,.13,0,.28,0,.42s0,.29,0,.42a3.29,3.29,0,0,1,0,.35.64.64,0,0,1-.05.2,1,1,0,0,1-.5.4,2.76,2.76,0,0,1-.94.23v.17h4.67v-.17a2.75,2.75,0,0,1-.73-.19,1.06,1.06,0,0,1-.53-.47,1.29,1.29,0,0,1-.11-.57c0-.28,0-.58,0-.9s0-.77,0-1.11,0-.66,0-1V16c0-.18,0-.36,0-.53s0-.33,0-.47a1.07,1.07,0,0,1,.09-.33,1.13,1.13,0,0,1,.52-.52,2.3,2.3,0,0,1,.71-.23v-.17Z"/></clipPath><clipPath id="clip-path-4"><path class="cls-1" d="M22.46,19.63a0,0,0,0,0,0,0V16.86c0-.29,0-.62,0-1,0-.22,0-.44,0-.67a1.42,1.42,0,0,0-.15-.59,1.22,1.22,0,0,0-.65-.59A2.83,2.83,0,0,0,21,13.9v-.08h4.49v.08a2.37,2.37,0,0,0-.69.23,1.19,1.19,0,0,0-.54.53,1.21,1.21,0,0,0-.1.34c0,.14,0,.3,0,.48s0,.36,0,.53v5.53c0,.31,0,.64,0,1s0,.72,0,1.11,0,.63,0,.91a1.37,1.37,0,0,0,.12.59,1.1,1.1,0,0,0,.55.49,3.14,3.14,0,0,0,.7.19v.09H20.92v-.08a2.84,2.84,0,0,0,.92-.23,1.09,1.09,0,0,0,.52-.42.63.63,0,0,0,.06-.22c0-.1,0-.22,0-.36s0-.28,0-.42,0-.29,0-.42c0-.37,0-.76,0-1.15V19.92a0,0,0,0,0,0,0h-6a0,0,0,0,0,0,0v3.63c0,.32,0,.64,0,.94a1.34,1.34,0,0,0,.14.67,1.22,1.22,0,0,0,.53.46,2.29,2.29,0,0,0,.63.19v.09h-4.4V25.8a3.08,3.08,0,0,0,.7-.22,1.44,1.44,0,0,0,.55-.41.85.85,0,0,0,.11-.3c0-.13,0-.28.06-.45s0-.35,0-.55,0-.39,0-.57,0-.37,0-.64,0-.55,0-.86v0c0-.32,0-.65,0-1V15.9c0-.2,0-.39,0-.57a3.88,3.88,0,0,0-.07-.48.89.89,0,0,0-.14-.35,1.24,1.24,0,0,0-.54-.43,2.81,2.81,0,0,0-.68-.18v-.08h4.44v.08l-.42.1a1.4,1.4,0,0,0-.45.22,1.19,1.19,0,0,0-.35.41,1.49,1.49,0,0,0-.16.66c0,.41,0,.84,0,1.28s0,.9,0,1.31v1.71a0,0,0,0,0,0,0Zm-1.52-5.9a0,0,0,0,0,0,0v.17a0,0,0,0,0,0,0,2.7,2.7,0,0,1,.69.12,1.14,1.14,0,0,1,.6.54,1.3,1.3,0,0,1,.14.55c0,.23,0,.45,0,.67,0,.38,0,.71,0,1v2.67H16.5V17.88c0-.41,0-.85,0-1.31s0-.86,0-1.27a1.44,1.44,0,0,1,.15-.62,1.11,1.11,0,0,1,.32-.38,1.45,1.45,0,0,1,.43-.21l.45-.1a0,0,0,0,0,0,0v-.17a0,0,0,0,0,0,0H13.34a0,0,0,0,0,0,0v.17a0,0,0,0,0,0,0,2.72,2.72,0,0,1,.7.18,1.12,1.12,0,0,1,.5.4.76.76,0,0,1,.13.31,3.94,3.94,0,0,1,.07.47c0,.17,0,.36,0,.56v4.88c0,.34,0,.67,0,1v0c0,.31,0,.59,0,.86s0,.49,0,.64,0,.37,0,.56,0,.38,0,.55a4.21,4.21,0,0,1-.06.44.71.71,0,0,1-.09.26,1.31,1.31,0,0,1-.52.38,2.9,2.9,0,0,1-.72.23,0,0,0,0,0,0,0v.17a0,0,0,0,0,0,0h4.48a0,0,0,0,0,0,0v-.17a0,0,0,0,0,0,0,2,2,0,0,1-.64-.18,1.13,1.13,0,0,1-.5-.42,1.29,1.29,0,0,1-.13-.62c0-.31,0-.62,0-.94V20h5.92v2.63c0,.39,0,.77,0,1.15,0,.13,0,.28,0,.42s0,.29,0,.42,0,.25,0,.35a.56.56,0,0,1,0,.19,1,1,0,0,1-.48.38,2.82,2.82,0,0,1-.93.22,0,0,0,0,0,0,0v.17a0,0,0,0,0,0,0h4.67a0,0,0,0,0,0,0v-.17a.05.05,0,0,0,0,0,2.73,2.73,0,0,1-.72-.18,1,1,0,0,1-.51-.45,1.33,1.33,0,0,1-.11-.54c0-.27,0-.58,0-.9s0-.77,0-1.11,0-.67,0-1V16c0-.18,0-.36,0-.53s0-.33,0-.47a1,1,0,0,1,.09-.32,1.08,1.08,0,0,1,.5-.49,2.24,2.24,0,0,1,.7-.22,0,0,0,0,0,0,0v-.17a0,0,0,0,0,0,0Z"/></clipPath><clipPath id="clip-path-5"><path class="cls-1" d="M27.07,13.77v.17a6.42,6.42,0,0,1,.67.14,1,1,0,0,1,.48.35.74.74,0,0,1,.15.33,3.55,3.55,0,0,1,.08.51c0,.19,0,.4,0,.61s0,.42,0,.63v4.27q0,.51,0,1c0,.32,0,.61,0,.88s0,.49,0,.64,0,.36,0,.55,0,.36-.05.53-.05.32-.08.45a.78.78,0,0,1-.12.29,1.46,1.46,0,0,1-.54.42,3,3,0,0,1-.71.22v.17h9.3L37,22.71l-.17-.05a11.8,11.8,0,0,1-.74,1.24,5.29,5.29,0,0,1-.74.87,3.13,3.13,0,0,1-.79.55,3.08,3.08,0,0,1-.9.26,7.33,7.33,0,0,1-.84.09l-.66,0a5.82,5.82,0,0,1-1.13-.1.91.91,0,0,1-.65-.34,1.75,1.75,0,0,1-.17-.72c0-.32,0-.66-.05-1,0-.11,0-.25,0-.42s0-.33,0-.51v-2a6,6,0,0,1,0-.69h1l.38,0a2.4,2.4,0,0,1,.8.19,2,2,0,0,1,.59.39,3.07,3.07,0,0,1,.52.86,6.26,6.26,0,0,1,.37,1.12H34V17.12h-.18c-.06.31-.13.6-.21.85a2.48,2.48,0,0,1-.3.67,1.75,1.75,0,0,1-.49.49,2.44,2.44,0,0,1-.76.32,2.94,2.94,0,0,1-.5.08l-.59,0-.52,0h-.3V19.4c0-.1,0-.25,0-.43s0-.42,0-.72V17.17q0-1.11,0-2c0-.56,0-.93.05-1.11a3.94,3.94,0,0,1,.5-.06l.66,0a12.39,12.39,0,0,1,1.7.1,3.47,3.47,0,0,1,1,.24,7.72,7.72,0,0,1,2.31,2.3l.15-.09-1-2.79Z"/></clipPath><clipPath id="clip-path-6"><path class="cls-1" d="M27,25.8a2.84,2.84,0,0,0,.68-.22,1.45,1.45,0,0,0,.56-.43.81.81,0,0,0,.13-.31c0-.13.06-.28.09-.45s0-.35.05-.54,0-.37,0-.55,0-.37,0-.64,0-.55,0-.86v0c0-.32,0-.65,0-1V16.51c0-.2,0-.41,0-.63s0-.42,0-.61a3.68,3.68,0,0,0-.07-.52.79.79,0,0,0-.16-.35,1.06,1.06,0,0,0-.51-.36,6.14,6.14,0,0,0-.64-.14v-.08h8.32l1,2.72-.08,0a7.78,7.78,0,0,0-2.3-2.28,3.4,3.4,0,0,0-1-.24,12.14,12.14,0,0,0-1.71-.1l-.67,0a3.72,3.72,0,0,0-.5.06,0,0,0,0,0,0,0c0,.18,0,.56-.05,1.12s0,1.23,0,2v1.08c0,.29,0,.54,0,.72s0,.33,0,.43v.18a0,0,0,0,0,0,0h.3l.53,0,.6,0a3,3,0,0,0,.5-.08,2.58,2.58,0,0,0,.78-.33,1.79,1.79,0,0,0,.51-.5,2.48,2.48,0,0,0,.31-.68,8.11,8.11,0,0,0,.2-.82H34v5.23h-.1a6.38,6.38,0,0,0-.37-1.09,3,3,0,0,0-.53-.87,2.07,2.07,0,0,0-.6-.4,2.45,2.45,0,0,0-.81-.19l-.38,0h-1a0,0,0,0,0,0,0,6.29,6.29,0,0,0,0,.7v2c0,.18,0,.36,0,.52s0,.3,0,.41c0,.36,0,.7.05,1a1.83,1.83,0,0,0,.18.74,1,1,0,0,0,.68.36,5.82,5.82,0,0,0,1.13.1l.66,0a7.51,7.51,0,0,0,.85-.09,3.19,3.19,0,0,0,.91-.26,3.25,3.25,0,0,0,.8-.56,5.31,5.31,0,0,0,.74-.87,12.24,12.24,0,0,0,.72-1.22l.09,0-.74,3.15H27Zm.09-12.07a0,0,0,0,0,0,0v.17a0,0,0,0,0,0,0,6.59,6.59,0,0,1,.67.14,1,1,0,0,1,.46.34.72.72,0,0,1,.13.31,3.2,3.2,0,0,1,.07.51c0,.19,0,.39,0,.61s0,.42,0,.62v4.27c0,.34,0,.67,0,1v0c0,.31,0,.59,0,.86s0,.49,0,.64,0,.36,0,.55,0,.36-.05.53-.06.32-.08.44a.74.74,0,0,1-.11.28,1.41,1.41,0,0,1-.52.41,2.89,2.89,0,0,1-.7.22,0,0,0,0,0,0,0v.17a0,0,0,0,0,0,0h9.3a0,0,0,0,0,0,0L37,22.72a0,0,0,0,0,0-.05l-.17-.05a.05.05,0,0,0-.05,0,11.91,11.91,0,0,1-.74,1.24,5.38,5.38,0,0,1-.73.86,3.18,3.18,0,0,1-.78.54,3,3,0,0,1-.88.26,8.13,8.13,0,0,1-.84.09l-.66,0a5.75,5.75,0,0,1-1.12-.1.87.87,0,0,1-.62-.32,1.69,1.69,0,0,1-.17-.7c0-.32,0-.67-.05-1,0-.11,0-.25,0-.42s0-.34,0-.51v-2a5.9,5.9,0,0,1,0-.65h1l.38,0a2.37,2.37,0,0,1,.79.18,1.94,1.94,0,0,1,.57.38,3,3,0,0,1,.52.85,6.3,6.3,0,0,1,.37,1.11,0,0,0,0,0,0,0H34a0,0,0,0,0,0,0V17.12a0,0,0,0,0,0,0h-.18a0,0,0,0,0,0,0,7.68,7.68,0,0,1-.2.85,2.53,2.53,0,0,1-.3.66,1.76,1.76,0,0,1-.48.48,2.44,2.44,0,0,1-.75.31,3.16,3.16,0,0,1-.49.08l-.59,0-.52,0H30.2V19.4c0-.1,0-.25,0-.43s0-.43,0-.72V17.17c0-.73,0-1.39,0-2s0-.89,0-1.08l.46-.05.66,0a12.4,12.4,0,0,1,1.7.1,3.28,3.28,0,0,1,.94.23,7.64,7.64,0,0,1,2.3,2.28,0,0,0,0,0,.06,0l.15-.09a0,0,0,0,0,0-.05l-1-2.79a0,0,0,0,0,0,0Z"/></clipPath><clipPath id="clip-path-7"><path class="cls-1" d="M19.08,31.38,12.29,46.26,5.39,31.38H0v.52a3.88,3.88,0,0,1,1.69.27,1.55,1.55,0,0,1,.72.68,4.39,4.39,0,0,1,.28,1.82V47.1a4.25,4.25,0,0,1-.31,2,1.92,1.92,0,0,1-1.71.73H0v.52H6.62v-.52H5.95a2.07,2.07,0,0,1-1.64-.59,3.86,3.86,0,0,1-.38-2.19V34.4l7.35,16h.46l7.34-16V47.1a4.28,4.28,0,0,1-.31,2,1.91,1.91,0,0,1-1.71.73h-.67v.52h8.08v-.52h-.66a2.07,2.07,0,0,1-1.64-.59,3.75,3.75,0,0,1-.39-2.19V34.68a4.25,4.25,0,0,1,.31-2,2,2,0,0,1,1.73-.73h.66v-.52Z"/></clipPath><clipPath id="clip-path-8"><path class="cls-1" d="M25.79,31.38v.52h.67a2.64,2.64,0,0,1,1.29.34,1.26,1.26,0,0,1,.58.6,6.27,6.27,0,0,1,.18,1.91V47a4.24,4.24,0,0,1-.34,2.16,2,2,0,0,1-1.71.69h-.67v.52h8.15v-.52h-.69A2.58,2.58,0,0,1,32,49.55a1.24,1.24,0,0,1-.59-.6A6.25,6.25,0,0,1,31.2,47V34.75a4.1,4.1,0,0,1,.35-2.16,2,2,0,0,1,1.7-.69h.69v-.52Z"/></clipPath><clipPath id="clip-path-9"><path class="cls-1" d="M46.14,31.38v.52h.44a1.57,1.57,0,0,1,1,.25.72.72,0,0,1,.29.57,1.84,1.84,0,0,1-.38,1,42,42,0,0,1-5,5.09l-1.92,1.78V34.75a6.41,6.41,0,0,1,.17-1.85,1.24,1.24,0,0,1,.6-.67,2.74,2.74,0,0,1,1.28-.32h.65v-.52H35.12v.52h.67a2.65,2.65,0,0,1,1.29.34,1.28,1.28,0,0,1,.58.59,6.48,6.48,0,0,1,.18,1.92V47a4.22,4.22,0,0,1-.34,2.16,2,2,0,0,1-1.71.69h-.67v.52h8.11v-.52h-.65a2.59,2.59,0,0,1-1.28-.34,1.25,1.25,0,0,1-.59-.6A6.25,6.25,0,0,1,40.53,47V40.9l6.57,6.5a5.1,5.1,0,0,1,.88,1,1.32,1.32,0,0,1,.13.6.77.77,0,0,1-.36.61,2,2,0,0,1-1.17.27v.52h9v-.52a6.27,6.27,0,0,1-2.44-.71,12.78,12.78,0,0,1-2.95-2.35l-7-7L46.13,37q2.54-2.6,2.85-2.88a11.85,11.85,0,0,1,1.8-1.43A5.8,5.8,0,0,1,52,32.07a4.18,4.18,0,0,1,1.12-.17v-.52Z"/></clipPath><clipPath id="clip-path-10"><path class="cls-1" d="M69.09,31.38v.52h.72a2.07,2.07,0,0,1,1.63.62,4,4,0,0,1,.39,2.23v7.7a12,12,0,0,1-.54,4.3,4.36,4.36,0,0,1-2,2.08,6.79,6.79,0,0,1-3.34.81,5.27,5.27,0,0,1-2.46-.52,4,4,0,0,1-1.54-1.32,5.41,5.41,0,0,1-.74-2.23A18.3,18.3,0,0,1,61,43V34.75a4.17,4.17,0,0,1,.35-2.1A1.89,1.89,0,0,1,63,31.9h.73v-.52H55.54v.52h.71a2,2,0,0,1,1.56.55,3.72,3.72,0,0,1,.48,2.3v7.43a16.18,16.18,0,0,0,.45,4.69A5.84,5.84,0,0,0,61,49.77a8.5,8.5,0,0,0,4.73,1.08,7.94,7.94,0,0,0,4.52-1.13A5.58,5.58,0,0,0,72.52,47a13.61,13.61,0,0,0,.57-4.44V34.86a4.27,4.27,0,0,1,.29-2,1.93,1.93,0,0,1,1.72-.94h.72v-.52Z"/></clipPath><clipPath id="clip-path-11"><path class="cls-1" d="M89.86,31.38v.52h.66a2.09,2.09,0,0,1,1.64.59,3.77,3.77,0,0,1,.39,2.19v11L80.92,31.38H75.76v.52A4.52,4.52,0,0,1,77,32a4.63,4.63,0,0,1,1.25.58,8.71,8.71,0,0,1,1.26,1.28V47.1a4.28,4.28,0,0,1-.31,2,1.94,1.94,0,0,1-1.72.73h-.66v.52h6.62v-.52h-.67a2.1,2.1,0,0,1-1.64-.59,3.87,3.87,0,0,1-.38-2.19V35.39L93.28,50.71h.51v-16a4.25,4.25,0,0,1,.31-2,1.93,1.93,0,0,1,1.71-.73h.67v-.52Z"/></clipPath><clipPath id="clip-path-12"><path class="cls-1" d="M97.6,31.38v.52h.67a2.67,2.67,0,0,1,1.29.34,1.28,1.28,0,0,1,.58.6,6.42,6.42,0,0,1,.18,1.91V47a4.23,4.23,0,0,1-.34,2.16,2,2,0,0,1-1.71.69H97.6v.52h8.15v-.52h-.69a2.57,2.57,0,0,1-1.28-.34,1.23,1.23,0,0,1-.59-.6A6.19,6.19,0,0,1,103,47V34.75a4.11,4.11,0,0,1,.35-2.16,2,2,0,0,1,1.7-.69h.69v-.52Z"/></clipPath><clipPath id="clip-path-13"><path class="cls-1" d="M43.05,13A13,13,0,0,0,66.29,21.1H63a10.61,10.61,0,1,1,.64-15.55h3.13A13,13,0,0,0,43.05,13"/></clipPath><clipPath id="clip-path-15"><path class="cls-1" d="M58.08,8a1.08,1.08,0,0,0,0,2.17H69.55a1.08,1.08,0,0,0,0-2.17Z"/></clipPath><clipPath id="clip-path-17"><path class="cls-1" d="M63.73,12.17a1.08,1.08,0,1,0,0,2.17H75.2a1.08,1.08,0,0,0,0-2.17Z"/></clipPath><clipPath id="clip-path-19"><path class="cls-1" d="M53.44,16.43a1.08,1.08,0,0,0,0,2.17H67.19a1.08,1.08,0,1,0,0-2.17Z"/></clipPath></defs><title>logo</title><g id="圖層_6" data-name="圖層 6"><path class="cls-1" d="M11,13.8a4.62,4.62,0,0,1-.83.09h-1l-.88,0H3.65l-1,0a6.54,6.54,0,0,1-.86-.07l-.64-.13L.66,16.9l.14.05A4,4,0,0,1,1,16.32c.11-.21.22-.41.33-.6l.34-.51A2.48,2.48,0,0,1,2,14.85a1.87,1.87,0,0,1,.69-.47,3.15,3.15,0,0,1,1-.15H5.57v6.55q0,.51,0,1c0,.32,0,.6,0,.86s0,.47,0,.62,0,.37,0,.56,0,.37,0,.53a4.36,4.36,0,0,1-.06.44.57.57,0,0,1-.11.28,1.58,1.58,0,0,1-.72.56,4.08,4.08,0,0,1-.76.17v.17H8.79v-.17a7.22,7.22,0,0,1-.75-.2,1.14,1.14,0,0,1-.65-.5,1.39,1.39,0,0,1-.15-.63c0-.3,0-.61,0-.94v-6.6q0-.8,0-1.52t0-1.15H9.17a3.77,3.77,0,0,1,.95.13,1.52,1.52,0,0,1,.69.45,2.28,2.28,0,0,1,.29.36l.34.53c.12.19.23.4.34.62s.21.43.29.63l.14-.05-.48-3.29c-.23.08-.46.14-.68.19"/><g class="cls-2"><rect class="cls-1" x="0.66" y="13.6" width="11.55" height="12.33"/></g><path class="cls-1" d="M7.42,14h2.8a4.37,4.37,0,0,0,.84-.1c.2,0,.42-.11.63-.18l.47,3.21-.06,0c-.08-.19-.17-.39-.27-.6s-.23-.43-.34-.62l-.34-.54a2.56,2.56,0,0,0-.29-.37,1.6,1.6,0,0,0-.71-.46,3.72,3.72,0,0,0-1-.13H7.24a0,0,0,0,0,0,0c0,.28,0,.66,0,1.15s0,1,0,1.52v6.61c0,.33,0,.64,0,.94a1.36,1.36,0,0,0,.15.65,1.2,1.2,0,0,0,.67.53,6.59,6.59,0,0,0,.72.19v.09H3.9v-.09a4.37,4.37,0,0,0,.73-.17,1.62,1.62,0,0,0,.74-.57.62.62,0,0,0,.12-.3c0-.13,0-.28.06-.44s0-.34,0-.54,0-.38,0-.56,0-.36,0-.62,0-.54,0-.86,0-.65,0-1V14.21a0,0,0,0,0,0,0H3.64a3.11,3.11,0,0,0-1,.15,1.87,1.87,0,0,0-.71.48,2.42,2.42,0,0,0-.29.36l-.34.52c-.11.18-.23.39-.34.6a4,4,0,0,0-.24.59l-.06,0,.44-3.12.6.12a7,7,0,0,0,.87.07l1,0H7.42Zm4.29-.41c-.23.08-.45.14-.67.19a4.37,4.37,0,0,1-.82.09H3.66l-1,0a6.14,6.14,0,0,1-.85-.07l-.64-.13h0a.05.05,0,0,0,0,0L.61,16.89a0,0,0,0,0,0,0l.14,0h0l0,0a3.77,3.77,0,0,1,.25-.62,6.3,6.3,0,0,1,.33-.6l.33-.51A2.38,2.38,0,0,1,2,14.88a1.74,1.74,0,0,1,.68-.46,3,3,0,0,1,.93-.15H5.53v6.51c0,.33,0,.66,0,1s0,.61,0,.86,0,.47,0,.63,0,.37,0,.56,0,.37,0,.53,0,.31-.06.43a.56.56,0,0,1-.1.26,1.54,1.54,0,0,1-.69.54,3.71,3.71,0,0,1-.75.16,0,0,0,0,0,0,0v.17a0,0,0,0,0,0,0H8.79a0,0,0,0,0,0,0v-.17a0,0,0,0,0,0,0,7.36,7.36,0,0,1-.75-.2A1.1,1.1,0,0,1,7.43,25a1.26,1.26,0,0,1-.14-.61c0-.29,0-.61,0-.93v-6.6c0-.56,0-1.06,0-1.52s0-.83,0-1.1H9.17a3.91,3.91,0,0,1,.94.13,1.52,1.52,0,0,1,.67.44,2.37,2.37,0,0,1,.28.35c.11.16.23.34.34.53s.23.4.34.61.21.43.29.63a0,0,0,0,0,.06,0l.14,0a0,0,0,0,0,0,0l-.49-3.29a0,0,0,0,0,0,0h0"/><g class="cls-3"><rect class="cls-1" x="0.61" y="13.56" width="11.65" height="12.42"/></g><path class="cls-1" d="M20.94,13.77v.17a2.72,2.72,0,0,1,.7.13,1.18,1.18,0,0,1,.62.57,1.32,1.32,0,0,1,.14.57c0,.23,0,.45,0,.67,0,.37,0,.7,0,1v2.72h-6V17.88c0-.42,0-.85,0-1.31s0-.88,0-1.27a1.48,1.48,0,0,1,.15-.64,1.14,1.14,0,0,1,.34-.4,1.3,1.3,0,0,1,.44-.21,4,4,0,0,1,.46-.1v-.17H13.34v.17a2.74,2.74,0,0,1,.71.18,1.18,1.18,0,0,1,.53.41.77.77,0,0,1,.14.33,3.14,3.14,0,0,1,.07.47q0,.26,0,.57v4.88c0,.34,0,.67,0,1s0,.61,0,.88,0,.49,0,.64,0,.37,0,.57,0,.38,0,.55a4.23,4.23,0,0,1-.06.45.74.74,0,0,1-.1.28,1.38,1.38,0,0,1-.53.4,3.05,3.05,0,0,1-.73.23v.17h4.48v-.17a2.12,2.12,0,0,1-.65-.19,1.15,1.15,0,0,1-.52-.44,1.32,1.32,0,0,1-.14-.64c0-.3,0-.62,0-.94V19.92h6v2.67c0,.39,0,.78,0,1.15,0,.13,0,.28,0,.42s0,.29,0,.42a3.29,3.29,0,0,1,0,.35.64.64,0,0,1-.05.2,1,1,0,0,1-.5.4,2.76,2.76,0,0,1-.94.23v.17h4.67v-.17a2.75,2.75,0,0,1-.73-.19,1.06,1.06,0,0,1-.53-.47,1.29,1.29,0,0,1-.11-.57c0-.28,0-.58,0-.9s0-.77,0-1.11,0-.66,0-1V16c0-.18,0-.36,0-.53s0-.33,0-.47a1.07,1.07,0,0,1,.09-.33,1.13,1.13,0,0,1,.52-.52,2.3,2.3,0,0,1,.71-.23v-.17Z"/><g class="cls-4"><rect class="cls-1" x="13.29" y="13.77" width="12.25" height="12.16"/></g><path class="cls-1" d="M22.46,19.63a0,0,0,0,0,0,0V16.86c0-.29,0-.62,0-1,0-.22,0-.44,0-.67a1.42,1.42,0,0,0-.15-.59,1.22,1.22,0,0,0-.65-.59A2.83,2.83,0,0,0,21,13.9v-.08h4.49v.08a2.37,2.37,0,0,0-.69.23,1.19,1.19,0,0,0-.54.53,1.21,1.21,0,0,0-.1.34c0,.14,0,.3,0,.48s0,.36,0,.53v5.53c0,.31,0,.64,0,1s0,.72,0,1.11,0,.63,0,.91a1.37,1.37,0,0,0,.12.59,1.1,1.1,0,0,0,.55.49,3.14,3.14,0,0,0,.7.19v.09H20.92v-.08a2.84,2.84,0,0,0,.92-.23,1.09,1.09,0,0,0,.52-.42.63.63,0,0,0,.06-.22c0-.1,0-.22,0-.36s0-.28,0-.42,0-.29,0-.42c0-.37,0-.76,0-1.15V19.92a0,0,0,0,0,0,0h-6a0,0,0,0,0,0,0v3.63c0,.32,0,.64,0,.94a1.34,1.34,0,0,0,.14.67,1.22,1.22,0,0,0,.53.46,2.29,2.29,0,0,0,.63.19v.09h-4.4V25.8a3.08,3.08,0,0,0,.7-.22,1.44,1.44,0,0,0,.55-.41.85.85,0,0,0,.11-.3c0-.13,0-.28.06-.45s0-.35,0-.55,0-.39,0-.57,0-.37,0-.64,0-.55,0-.86v0c0-.32,0-.65,0-1V15.9c0-.2,0-.39,0-.57a3.88,3.88,0,0,0-.07-.48.89.89,0,0,0-.14-.35,1.24,1.24,0,0,0-.54-.43,2.81,2.81,0,0,0-.68-.18v-.08h4.44v.08l-.42.1a1.4,1.4,0,0,0-.45.22,1.19,1.19,0,0,0-.35.41,1.49,1.49,0,0,0-.16.66c0,.41,0,.84,0,1.28s0,.9,0,1.31v1.71a0,0,0,0,0,0,0Zm-1.52-5.9a0,0,0,0,0,0,0v.17a0,0,0,0,0,0,0,2.7,2.7,0,0,1,.69.12,1.14,1.14,0,0,1,.6.54,1.3,1.3,0,0,1,.14.55c0,.23,0,.45,0,.67,0,.38,0,.71,0,1v2.67H16.5V17.88c0-.41,0-.85,0-1.31s0-.86,0-1.27a1.44,1.44,0,0,1,.15-.62,1.11,1.11,0,0,1,.32-.38,1.45,1.45,0,0,1,.43-.21l.45-.1a0,0,0,0,0,0,0v-.17a0,0,0,0,0,0,0H13.34a0,0,0,0,0,0,0v.17a0,0,0,0,0,0,0,2.72,2.72,0,0,1,.7.18,1.12,1.12,0,0,1,.5.4.76.76,0,0,1,.13.31,3.94,3.94,0,0,1,.07.47c0,.17,0,.36,0,.56v4.88c0,.34,0,.67,0,1v0c0,.31,0,.59,0,.86s0,.49,0,.64,0,.37,0,.56,0,.38,0,.55a4.21,4.21,0,0,1-.06.44.71.71,0,0,1-.09.26,1.31,1.31,0,0,1-.52.38,2.9,2.9,0,0,1-.72.23,0,0,0,0,0,0,0v.17a0,0,0,0,0,0,0h4.48a0,0,0,0,0,0,0v-.17a0,0,0,0,0,0,0,2,2,0,0,1-.64-.18,1.13,1.13,0,0,1-.5-.42,1.29,1.29,0,0,1-.13-.62c0-.31,0-.62,0-.94V20h5.92v2.63c0,.39,0,.77,0,1.15,0,.13,0,.28,0,.42s0,.29,0,.42,0,.25,0,.35a.56.56,0,0,1,0,.19,1,1,0,0,1-.48.38,2.82,2.82,0,0,1-.93.22,0,0,0,0,0,0,0v.17a0,0,0,0,0,0,0h4.67a0,0,0,0,0,0,0v-.17a.05.05,0,0,0,0,0,2.73,2.73,0,0,1-.72-.18,1,1,0,0,1-.51-.45,1.33,1.33,0,0,1-.11-.54c0-.27,0-.58,0-.9s0-.77,0-1.11,0-.67,0-1V16c0-.18,0-.36,0-.53s0-.33,0-.47a1,1,0,0,1,.09-.32,1.08,1.08,0,0,1,.5-.49,2.24,2.24,0,0,1,.7-.22,0,0,0,0,0,0,0v-.17a0,0,0,0,0,0,0Z"/><g class="cls-5"><rect class="cls-1" x="13.25" y="13.73" width="12.34" height="12.25"/></g><path class="cls-1" d="M27.07,13.77v.17a6.42,6.42,0,0,1,.67.14,1,1,0,0,1,.48.35.74.74,0,0,1,.15.33,3.55,3.55,0,0,1,.08.51c0,.19,0,.4,0,.61s0,.42,0,.63v4.27q0,.51,0,1c0,.32,0,.61,0,.88s0,.49,0,.64,0,.36,0,.55,0,.36-.05.53-.05.32-.08.45a.78.78,0,0,1-.12.29,1.46,1.46,0,0,1-.54.42,3,3,0,0,1-.71.22v.17h9.3L37,22.71l-.17-.05a11.8,11.8,0,0,1-.74,1.24,5.29,5.29,0,0,1-.74.87,3.13,3.13,0,0,1-.79.55,3.08,3.08,0,0,1-.9.26,7.33,7.33,0,0,1-.84.09l-.66,0a5.82,5.82,0,0,1-1.13-.1.91.91,0,0,1-.65-.34,1.75,1.75,0,0,1-.17-.72c0-.32,0-.66-.05-1,0-.11,0-.25,0-.42s0-.33,0-.51v-2a6,6,0,0,1,0-.69h1l.38,0a2.4,2.4,0,0,1,.8.19,2,2,0,0,1,.59.39,3.07,3.07,0,0,1,.52.86,6.26,6.26,0,0,1,.37,1.12H34V17.12h-.18c-.06.31-.13.6-.21.85a2.48,2.48,0,0,1-.3.67,1.75,1.75,0,0,1-.49.49,2.44,2.44,0,0,1-.76.32,2.94,2.94,0,0,1-.5.08l-.59,0-.52,0h-.3V19.4c0-.1,0-.25,0-.43s0-.42,0-.72V17.17q0-1.11,0-2c0-.56,0-.93.05-1.11a3.94,3.94,0,0,1,.5-.06l.66,0a12.39,12.39,0,0,1,1.7.1,3.47,3.47,0,0,1,1,.24,7.72,7.72,0,0,1,2.31,2.3l.15-.09-1-2.79Z"/><g class="cls-6"><rect class="cls-1" x="26.93" y="13.77" width="10.06" height="12.16"/></g><path class="cls-1" d="M27,25.8a2.84,2.84,0,0,0,.68-.22,1.45,1.45,0,0,0,.56-.43.81.81,0,0,0,.13-.31c0-.13.06-.28.09-.45s0-.35.05-.54,0-.37,0-.55,0-.37,0-.64,0-.55,0-.86v0c0-.32,0-.65,0-1V16.51c0-.2,0-.41,0-.63s0-.42,0-.61a3.68,3.68,0,0,0-.07-.52.79.79,0,0,0-.16-.35,1.06,1.06,0,0,0-.51-.36,6.14,6.14,0,0,0-.64-.14v-.08h8.32l1,2.72-.08,0a7.78,7.78,0,0,0-2.3-2.28,3.4,3.4,0,0,0-1-.24,12.14,12.14,0,0,0-1.71-.1l-.67,0a3.72,3.72,0,0,0-.5.06,0,0,0,0,0,0,0c0,.18,0,.56-.05,1.12s0,1.23,0,2v1.08c0,.29,0,.54,0,.72s0,.33,0,.43v.18a0,0,0,0,0,0,0h.3l.53,0,.6,0a3,3,0,0,0,.5-.08,2.58,2.58,0,0,0,.78-.33,1.79,1.79,0,0,0,.51-.5,2.48,2.48,0,0,0,.31-.68,8.11,8.11,0,0,0,.2-.82H34v5.23h-.1a6.38,6.38,0,0,0-.37-1.09,3,3,0,0,0-.53-.87,2.07,2.07,0,0,0-.6-.4,2.45,2.45,0,0,0-.81-.19l-.38,0h-1a0,0,0,0,0,0,0,6.29,6.29,0,0,0,0,.7v2c0,.18,0,.36,0,.52s0,.3,0,.41c0,.36,0,.7.05,1a1.83,1.83,0,0,0,.18.74,1,1,0,0,0,.68.36,5.82,5.82,0,0,0,1.13.1l.66,0a7.51,7.51,0,0,0,.85-.09,3.19,3.19,0,0,0,.91-.26,3.25,3.25,0,0,0,.8-.56,5.31,5.31,0,0,0,.74-.87,12.24,12.24,0,0,0,.72-1.22l.09,0-.74,3.15H27Zm.09-12.07a0,0,0,0,0,0,0v.17a0,0,0,0,0,0,0,6.59,6.59,0,0,1,.67.14,1,1,0,0,1,.46.34.72.72,0,0,1,.13.31,3.2,3.2,0,0,1,.07.51c0,.19,0,.39,0,.61s0,.42,0,.62v4.27c0,.34,0,.67,0,1v0c0,.31,0,.59,0,.86s0,.49,0,.64,0,.36,0,.55,0,.36-.05.53-.06.32-.08.44a.74.74,0,0,1-.11.28,1.41,1.41,0,0,1-.52.41,2.89,2.89,0,0,1-.7.22,0,0,0,0,0,0,0v.17a0,0,0,0,0,0,0h9.3a0,0,0,0,0,0,0L37,22.72a0,0,0,0,0,0-.05l-.17-.05a.05.05,0,0,0-.05,0,11.91,11.91,0,0,1-.74,1.24,5.38,5.38,0,0,1-.73.86,3.18,3.18,0,0,1-.78.54,3,3,0,0,1-.88.26,8.13,8.13,0,0,1-.84.09l-.66,0a5.75,5.75,0,0,1-1.12-.1.87.87,0,0,1-.62-.32,1.69,1.69,0,0,1-.17-.7c0-.32,0-.67-.05-1,0-.11,0-.25,0-.42s0-.34,0-.51v-2a5.9,5.9,0,0,1,0-.65h1l.38,0a2.37,2.37,0,0,1,.79.18,1.94,1.94,0,0,1,.57.38,3,3,0,0,1,.52.85,6.3,6.3,0,0,1,.37,1.11,0,0,0,0,0,0,0H34a0,0,0,0,0,0,0V17.12a0,0,0,0,0,0,0h-.18a0,0,0,0,0,0,0,7.68,7.68,0,0,1-.2.85,2.53,2.53,0,0,1-.3.66,1.76,1.76,0,0,1-.48.48,2.44,2.44,0,0,1-.75.31,3.16,3.16,0,0,1-.49.08l-.59,0-.52,0H30.2V19.4c0-.1,0-.25,0-.43s0-.43,0-.72V17.17c0-.73,0-1.39,0-2s0-.89,0-1.08l.46-.05.66,0a12.4,12.4,0,0,1,1.7.1,3.28,3.28,0,0,1,.94.23,7.64,7.64,0,0,1,2.3,2.28,0,0,0,0,0,.06,0l.15-.09a0,0,0,0,0,0-.05l-1-2.79a0,0,0,0,0,0,0Z"/><g class="cls-7"><rect class="cls-1" x="26.89" y="13.73" width="10.16" height="12.25"/></g><path class="cls-1" d="M19.08,31.38,12.29,46.26,5.39,31.38H0v.52a3.88,3.88,0,0,1,1.69.27,1.55,1.55,0,0,1,.72.68,4.39,4.39,0,0,1,.28,1.82V47.1a4.25,4.25,0,0,1-.31,2,1.92,1.92,0,0,1-1.71.73H0v.52H6.62v-.52H5.95a2.07,2.07,0,0,1-1.64-.59,3.86,3.86,0,0,1-.38-2.19V34.4l7.35,16h.46l7.34-16V47.1a4.28,4.28,0,0,1-.31,2,1.91,1.91,0,0,1-1.71.73h-.67v.52h8.08v-.52h-.66a2.07,2.07,0,0,1-1.64-.59,3.75,3.75,0,0,1-.39-2.19V34.68a4.25,4.25,0,0,1,.31-2,2,2,0,0,1,1.73-.73h.66v-.52Z"/><g class="cls-8"><rect class="cls-1" y="31.38" width="24.47" height="19.02"/></g><path class="cls-1" d="M25.79,31.38v.52h.67a2.64,2.64,0,0,1,1.29.34,1.26,1.26,0,0,1,.58.6,6.27,6.27,0,0,1,.18,1.91V47a4.24,4.24,0,0,1-.34,2.16,2,2,0,0,1-1.71.69h-.67v.52h8.15v-.52h-.69A2.58,2.58,0,0,1,32,49.55a1.24,1.24,0,0,1-.59-.6A6.25,6.25,0,0,1,31.2,47V34.75a4.1,4.1,0,0,1,.35-2.16,2,2,0,0,1,1.7-.69h.69v-.52Z"/><g class="cls-9"><rect class="cls-1" x="25.79" y="31.38" width="8.15" height="19.02"/></g><path class="cls-1" d="M46.14,31.38v.52h.44a1.57,1.57,0,0,1,1,.25.72.72,0,0,1,.29.57,1.84,1.84,0,0,1-.38,1,42,42,0,0,1-5,5.09l-1.92,1.78V34.75a6.41,6.41,0,0,1,.17-1.85,1.24,1.24,0,0,1,.6-.67,2.74,2.74,0,0,1,1.28-.32h.65v-.52H35.12v.52h.67a2.65,2.65,0,0,1,1.29.34,1.28,1.28,0,0,1,.58.59,6.48,6.48,0,0,1,.18,1.92V47a4.22,4.22,0,0,1-.34,2.16,2,2,0,0,1-1.71.69h-.67v.52h8.11v-.52h-.65a2.59,2.59,0,0,1-1.28-.34,1.25,1.25,0,0,1-.59-.6A6.25,6.25,0,0,1,40.53,47V40.9l6.57,6.5a5.1,5.1,0,0,1,.88,1,1.32,1.32,0,0,1,.13.6.77.77,0,0,1-.36.61,2,2,0,0,1-1.17.27v.52h9v-.52a6.27,6.27,0,0,1-2.44-.71,12.78,12.78,0,0,1-2.95-2.35l-7-7L46.13,37q2.54-2.6,2.85-2.88a11.85,11.85,0,0,1,1.8-1.43A5.8,5.8,0,0,1,52,32.07a4.18,4.18,0,0,1,1.12-.17v-.52Z"/><g class="cls-10"><rect class="cls-1" x="35.12" y="31.38" width="20.51" height="19.02"/></g><path class="cls-1" d="M69.09,31.38v.52h.72a2.07,2.07,0,0,1,1.63.62,4,4,0,0,1,.39,2.23v7.7a12,12,0,0,1-.54,4.3,4.36,4.36,0,0,1-2,2.08,6.79,6.79,0,0,1-3.34.81,5.27,5.27,0,0,1-2.46-.52,4,4,0,0,1-1.54-1.32,5.41,5.41,0,0,1-.74-2.23A18.3,18.3,0,0,1,61,43V34.75a4.17,4.17,0,0,1,.35-2.1A1.89,1.89,0,0,1,63,31.9h.73v-.52H55.54v.52h.71a2,2,0,0,1,1.56.55,3.72,3.72,0,0,1,.48,2.3v7.43a16.18,16.18,0,0,0,.45,4.69A5.84,5.84,0,0,0,61,49.77a8.5,8.5,0,0,0,4.73,1.08,7.94,7.94,0,0,0,4.52-1.13A5.58,5.58,0,0,0,72.52,47a13.61,13.61,0,0,0,.57-4.44V34.86a4.27,4.27,0,0,1,.29-2,1.93,1.93,0,0,1,1.72-.94h.72v-.52Z"/><g class="cls-11"><rect class="cls-1" x="55.54" y="31.38" width="20.28" height="19.47"/></g><path class="cls-1" d="M89.86,31.38v.52h.66a2.09,2.09,0,0,1,1.64.59,3.77,3.77,0,0,1,.39,2.19v11L80.92,31.38H75.76v.52A4.52,4.52,0,0,1,77,32a4.63,4.63,0,0,1,1.25.58,8.71,8.71,0,0,1,1.26,1.28V47.1a4.28,4.28,0,0,1-.31,2,1.94,1.94,0,0,1-1.72.73h-.66v.52h6.62v-.52h-.67a2.1,2.1,0,0,1-1.64-.59,3.87,3.87,0,0,1-.38-2.19V35.39L93.28,50.71h.51v-16a4.25,4.25,0,0,1,.31-2,1.93,1.93,0,0,1,1.71-.73h.67v-.52Z"/><g class="cls-12"><rect class="cls-1" x="75.76" y="31.38" width="20.72" height="19.33"/></g><path class="cls-1" d="M97.6,31.38v.52h.67a2.67,2.67,0,0,1,1.29.34,1.28,1.28,0,0,1,.58.6,6.42,6.42,0,0,1,.18,1.91V47a4.23,4.23,0,0,1-.34,2.16,2,2,0,0,1-1.71.69H97.6v.52h8.15v-.52h-.69a2.57,2.57,0,0,1-1.28-.34,1.23,1.23,0,0,1-.59-.6A6.19,6.19,0,0,1,103,47V34.75a4.11,4.11,0,0,1,.35-2.16,2,2,0,0,1,1.7-.69h.69v-.52Z"/><g class="cls-13"><rect class="cls-1" x="97.6" y="31.38" width="8.15" height="19.02"/></g><path class="cls-1" d="M43.05,13A13,13,0,0,0,66.29,21.1H63a10.61,10.61,0,1,1,.64-15.55h3.13A13,13,0,0,0,43.05,13"/><g class="cls-14"><rect class="cls-1" x="37.39" y="-4.2" width="34.99" height="34.47" transform="matrix(0.59, -0.81, 0.81, 0.59, 12.1, 49.8)"/></g><path class="cls-1" d="M43.05,13A13,13,0,0,0,66.29,21.1H63a10.61,10.61,0,1,1,.64-15.55h3.13A13,13,0,0,0,43.05,13"/><g class="cls-14"><rect class="cls-1" x="37.39" y="-4.2" width="34.99" height="34.47" transform="matrix(0.59, -0.81, 0.81, 0.59, 12.1, 49.8)"/></g><path class="cls-1" d="M58.08,8a1.08,1.08,0,0,0,0,2.17H69.55a1.08,1.08,0,0,0,0-2.17Z"/><g class="cls-15"><rect class="cls-1" x="58.94" y="2.97" width="9.77" height="12.31" transform="translate(18.95 55.41) rotate(-54.03)"/></g><path class="cls-1" d="M58.08,8a1.08,1.08,0,0,0,0,2.17H69.55a1.08,1.08,0,0,0,0-2.17Z"/><g class="cls-15"><rect class="cls-1" x="58.94" y="2.97" width="9.77" height="12.31" transform="translate(18.95 55.41) rotate(-54.03)"/></g><path class="cls-1" d="M63.73,12.17a1.08,1.08,0,1,0,0,2.17H75.2a1.08,1.08,0,0,0,0-2.17Z"/><g class="cls-16"><rect class="cls-1" x="64.58" y="7.1" width="9.77" height="12.31" transform="translate(17.93 61.69) rotate(-54.03)"/></g><path class="cls-1" d="M63.73,12.17a1.08,1.08,0,1,0,0,2.17H75.2a1.08,1.08,0,0,0,0-2.17Z"/><g class="cls-16"><rect class="cls-1" x="64.58" y="7.1" width="9.77" height="12.31" transform="translate(17.93 61.69) rotate(-54.03)"/></g><path class="cls-1" d="M53.44,16.43a1.08,1.08,0,0,0,0,2.17H67.19a1.08,1.08,0,1,0,0-2.17Z"/><g class="cls-17"><rect class="cls-1" x="54.76" y="10.43" width="11.11" height="14.16" transform="translate(10.71 56.04) rotate(-54.03)"/></g><path class="cls-1" d="M53.44,16.43a1.08,1.08,0,0,0,0,2.17H67.19a1.08,1.08,0,1,0,0-2.17Z"/><g class="cls-17"><rect class="cls-1" x="54.76" y="10.43" width="11.11" height="14.16" transform="translate(10.71 56.04) rotate(-54.03)"/></g></g></svg>